# xmcd
#
# Track frame offsets: 
#        150
#        12851
#        32695
#        54583
#        70997
#        87497
#        109750
#        121164
#        137637
#        149077
#
# Disc length: 2197 seconds
#
# Revision: 0
# Processed by: cddbd v1.5.2PL0 Copyright (c) Steve Scherf et al.
# Submitted via: ExactAudioCopyFreeDBPlugin 1.0
#
DISCID=8d08930a
DTITLE=Ann-Maree Keefe - Cryptology
DYEAR=2012
DGENRE=Gospel
TTITLE0=Little Bird
TTITLE1=Made New
TTITLE2=More
TTITLE3=Cryptology
TTITLE4=Rest In Me
TTITLE5=Seventy Times Seven
TTITLE6=Busy
TTITLE7=Thread Of Gold
TTITLE8=Lift Our Eyes
TTITLE9=Up High
EXTD=
EXTT0=
EXTT1=
EXTT2=
EXTT3=
EXTT4=
EXTT5=
EXTT6=
EXTT7=
EXTT8=
EXTT9=
PLAYORDER=
